# xmcd
#
# Track frame offsets:
#	150
#	19552
#	42502
#	76061
#	103564
#	117366
#	132026
#	147909
#	163669
#	188359
#	203586
#	220936
#	242901
#
# Disc length: 3412 seconds
#
# Revision: 0
# Processed by: cddbd v1.5.1PL0 Copyright (c) Steve Scherf et al.
# Submitted via: dBpowerAMP V4.0
#
DISCID=a60d520d
DTITLE=Buena Vista Social Club - Buena Vista Social Club
DYEAR=1900
DGENRE=Blues
TTITLE0=Chan Chan
TTITLE1=De Camino a la Vereda
TTITLE2=El Cuarto de Tula
TTITLE3=Pueblo Nuevo
TTITLE4=Dos Gardenias
TTITLE5=¿Y Tú Qué Has Hecho?
TTITLE6=Veinte Años
TTITLE7=El Carretero
TTITLE8=Candela
TTITLE9=Amor de Loca Juventud
TTITLE10=Orgullecida
TTITLE11=Murmullo
TTITLE12=Buena Vista Social Club
EXTD=Buena Vista Social Club\n
EXTT0=
EXTT1=
EXTT2=
EXTT3=
EXTT4=
EXTT5=
EXTT6=
EXTT7=
EXTT8=
EXTT9=
EXTT10=
EXTT11=
EXTT12=
PLAYORDER=
